<?xml version="1.0" standalone="no"?>
<!DOCTYPE svg PUBLIC "-//W3C//DTD SVG 20010904//EN"
 "http://www.w3.org/TR/2001/REC-SVG-20010904/DTD/svg10.dtd">
<svg version="1.0" xmlns="http://www.w3.org/2000/svg"
 width="300.000000pt" height="300.000000pt" viewBox="0 0 300.000000 300.000000"
 preserveAspectRatio="xMidYMid meet">
<metadata>
Created by potrace 1.10, written by Peter Selinger 2001-2011
</metadata>
<g transform="translate(0.000000,300.000000) scale(0.100000,-0.100000)"
fill="#000000" stroke="none">
<path d="M1215 2412 c-42 -20 -99 -78 -127 -130 -16 -29 -21 -32 -66 -32 -164
0 -272 -108 -272 -272 0 -45 -3 -50 -32 -66 -56 -30 -116 -92 -134 -138 -25
-67 -15 -159 25 -223 l31 -51 -31 -51 c-37 -59 -49 -152 -29 -214 16 -48 68
-106 126 -140 42 -25 44 -28 44 -74 0 -157 91 -257 246 -268 73 -6 78 -8 93
-36 27 -52 84 -109 126 -128 73 -33 167 -23 248 28 l37 23 38 -23 c140 -88
284 -53 368 90 24 42 26 43 78 43 156 0 266 110 266 266 0 52 1 54 43 78 143
84 178 228 90 369 l-23 37 23 38 c51 80 61 174 28 247 -19 42 -76 99 -128 126
-28 15 -30 20 -36 93 -11 155 -111 246 -268 246 -46 0 -49 2 -74 44 -34 58
-92 110 -140 126 -62 20 -155 8 -214 -29 l-51 -31 -51 32 c-67 41 -171 50
-234 20z m203 -27 c28 -13 52 -28 52 -33 0 -4 -35 -28 -77 -53 -76 -43 -80
-44 -186 -49 -59 -3 -107 -2 -107 3 0 13 47 81 71 104 62 57 160 68 247 28z
m349 10 c21 -9 46 -23 57 -33 24 -21 76 -92 76 -104 0 -4 -47 -8 -104 -8
l-104 0 -81 47 c-44 26 -81 51 -81 54 0 4 23 19 52 33 60 30 129 34 185 11z
m-190 -100 c40 -22 73 -42 73 -45 0 -3 -67 -5 -150 -5 -82 0 -150 2 -150 5 0
6 143 88 150 86 3 0 38 -19 77 -41z m-529 -87 c-8 -13 -33 -55 -56 -94 -32
-56 -50 -76 -89 -97 -26 -14 -68 -39 -92 -53 l-44 -27 6 66 c14 147 96 222
246 226 43 1 43 1 29 -21z m212 18 c0 -2 -46 -30 -102 -62 -57 -31 -116 -66
-131 -77 -16 -10 -30 -18 -31 -16 -2 2 17 39 41 82 l46 77 88 0 c49 0 89 -2
89 -4z m600 -95 l172 -99 99 -172 99 -172 0 -188 0 -188 -99 -172 -99 -172
-172 -99 -172 -99 -189 0 -188 0 -143 84 c-79 46 -155 90 -170 97 -20 10 -57
66 -128 188 l-100 173 0 188 0 188 99 172 99 172 169 98 168 98 191 1 192 1
172 -99z m103 22 c24 -43 43 -80 41 -82 -1 -2 -15 6 -31 16 -15 11 -74 46
-130 77 -57 32 -103 60 -103 62 0 2 40 4 89 4 l88 0 46 -77z m144 48 c74 -38
111 -98 120 -199 l6 -66 -24 15 c-13 9 -56 34 -95 57 -56 32 -76 50 -97 89
-14 26 -39 68 -53 92 l-27 44 66 -6 c36 -3 83 -15 104 -26z m-1232 -290 c-30
-50 -64 -110 -75 -131 -11 -22 -23 -40 -25 -40 -3 0 -5 40 -5 89 l0 88 78 46
c42 24 78 44 80 42 1 -1 -23 -43 -53 -94z m1298 39 l57 -32 0 -89 c0 -49 -2
-89 -4 -89 -2 0 -30 46 -62 103 -31 56 -65 114 -76 129 -24 35 -23 43 5 26 12
-8 48 -30 80 -48z m-1423 -157 c-5 -106 -6 -110 -49 -185 -25 -43 -49 -78 -53
-78 -5 0 -20 24 -33 53 -39 82 -29 182 23 241 23 26 93 76 106 76 8 0 9 -33 6
-107z m1556 78 c74 -54 104 -108 104 -188 0 -47 -40 -153 -57 -153 -5 0 -30
37 -56 81 l-47 81 0 104 c0 57 4 104 8 104 5 0 27 -13 48 -29z m-1551 -371 c0
-82 -2 -150 -5 -150 -3 0 -24 34 -47 75 l-41 75 41 75 c23 41 44 75 47 75 3 0
5 -67 5 -150z m1539 -77 l-44 -78 0 155 0 155 44 -77 44 -77 -44 -78z m-1591
-34 l47 -81 0 -104 c0 -57 -4 -104 -8 -104 -12 0 -83 52 -104 76 -53 60 -62
161 -22 242 14 29 29 52 33 52 3 0 28 -37 54 -81z m1682 29 c39 -83 29 -183
-23 -242 -21 -24 -92 -76 -104 -76 -4 0 -8 47 -8 104 l0 104 47 81 c26 44 51
81 56 81 4 0 19 -24 32 -52z m-1549 -260 c31 -57 66 -116 77 -131 10 -16 18
-30 16 -31 -2 -2 -39 17 -81 41 l-78 46 0 88 c0 49 2 89 4 89 2 0 30 -46 62
-102z m1394 13 l0 -88 -77 -46 c-43 -24 -80 -43 -82 -41 -2 1 6 15 16 31 11
15 46 74 77 131 32 56 60 102 62 102 2 0 4 -40 4 -89z m-1336 -183 c51 -31 65
-46 111 -124 59 -99 59 -101 -31 -89 -69 8 -141 55 -172 112 -14 25 -25 67
-29 109 l-6 68 34 -21 c19 -12 60 -37 93 -55z m1331 -13 c-14 -115 -97 -190
-221 -202 l-68 -6 21 34 c12 19 37 60 55 93 31 51 46 65 124 111 99 59 101 59
89 -30z m-1197 -63 c15 -11 73 -45 130 -76 56 -32 102 -60 102 -62 0 -2 -40
-4 -89 -4 l-89 0 -32 58 c-18 31 -40 67 -48 80 -17 27 -9 28 26 4z m970 -4
c-8 -13 -30 -49 -48 -80 l-32 -58 -89 0 c-49 0 -89 2 -89 4 0 2 48 31 108 65
59 33 116 67 127 75 29 22 39 19 23 -6z m-609 -205 c44 -26 81 -51 81 -56 0
-4 -24 -19 -52 -32 -83 -39 -183 -29 -242 23 -24 21 -76 92 -76 104 0 4 47 8
104 8 l104 0 81 -47z m189 3 l-78 -45 -77 45 -78 44 155 0 155 0 -77 -44z
m304 2 c-58 -83 -115 -118 -196 -118 -46 0 -156 41 -156 58 0 4 37 29 83 55
l82 47 108 0 108 0 -29 -42z"/>
<path d="M1350 1500 c0 -60 4 -100 10 -100 6 0 10 40 10 100 0 60 -4 100 -10
100 -6 0 -10 -40 -10 -100z"/>
<path d="M940 1495 c0 -57 4 -95 10 -95 6 0 10 20 10 45 l0 45 40 0 40 0 0
-45 c0 -25 5 -45 10 -45 6 0 10 38 10 95 0 57 -4 95 -10 95 -5 0 -10 -18 -10
-40 0 -40 0 -40 -40 -40 -40 0 -40 0 -40 40 0 22 -4 40 -10 40 -6 0 -10 -38
-10 -95z"/>
<path d="M1937 1583 c-3 -5 -14 -39 -26 -78 -12 -38 -24 -78 -27 -87 -3 -10
-1 -18 4 -18 6 0 13 11 16 25 5 21 12 25 41 25 29 0 37 -5 45 -25 5 -14 14
-25 19 -25 5 0 -5 43 -22 95 -29 89 -39 106 -50 88z m26 -68 l16 -45 -30 0
c-24 0 -29 4 -25 18 3 9 8 29 12 45 3 15 8 27 9 27 2 0 10 -20 18 -45z"/>
<path d="M2040 1495 c0 -57 4 -95 10 -95 6 0 10 38 10 95 0 57 -4 95 -10 95
-6 0 -10 -38 -10 -95z"/>
<path d="M1591 1563 c0 -12 -9 -24 -18 -26 -17 -4 -17 -5 0 -6 14 -1 17 -11
17 -66 0 -58 2 -65 20 -65 11 0 20 5 20 10 0 6 -7 10 -15 10 -24 0 -21 107 3
113 15 4 15 5 0 6 -9 0 -19 11 -21 24 -4 22 -4 22 -6 0z"/>
<path d="M1117 1537 c-26 -18 -33 -81 -13 -112 17 -26 68 -35 81 -14 11 16 -3
23 -19 10 -20 -17 -56 3 -56 29 0 17 7 20 40 20 36 0 40 3 40 24 0 26 -23 56
-44 56 -7 0 -20 -6 -29 -13z m52 -26 c9 -17 6 -19 -24 -23 -36 -4 -45 8 -23
30 17 17 36 15 47 -7z"/>
<path d="M1297 1544 c-3 -3 -3 -27 0 -53 4 -36 1 -51 -11 -64 -30 -29 -46 -11
-46 54 0 33 -4 59 -10 59 -6 0 -10 -26 -10 -59 0 -67 12 -83 59 -79 l31 2 0
73 c0 73 -1 79 -13 67z"/>
<path d="M1478 1539 c-29 -16 -21 -48 17 -70 19 -12 35 -27 35 -34 0 -20 -31
-27 -50 -10 -23 21 -33 19 -20 -5 21 -39 102 -16 86 25 -3 9 -19 23 -36 33
-34 19 -41 52 -10 52 10 0 23 -8 29 -17 5 -10 13 -15 17 -10 9 8 -24 47 -40
47 -6 0 -19 -5 -28 -11z"/>
<path d="M1725 1534 c-21 -22 -17 -112 6 -127 23 -14 66 -1 72 23 6 25 2 25
-23 0 -36 -36 -71 5 -56 65 9 36 35 43 57 17 19 -24 29 -28 29 -12 0 15 -38
50 -54 50 -8 0 -22 -7 -31 -16z"/>
<path d="M1405 1470 c0 -39 3 -70 8 -70 4 0 7 32 7 70 0 39 -3 70 -7 70 -5 0
-8 -32 -8 -70z"/>
<path d="M1660 1470 c0 -38 4 -70 9 -70 4 0 8 32 8 70 0 39 -4 70 -8 70 -5 0
-9 -31 -9 -70z"/>
</g>
</svg>
